<svg width="24" height="24" viewBox="0 0 24 24" fill="none" xmlns="http://www.w3.org/2000/svg">
<path d="M9.0862 2.96676C8.73186 2.08089 7.87387 1.5 6.91976 1.5H3.71053C2.48969 1.5 1.5 2.48945 1.5 3.71029C1.5 14.0874 9.91258 22.5 20.2897 22.5C21.5106 22.5 22.5 21.5102 22.5 20.2894L22.5005 17.0796C22.5005 16.1255 21.9198 15.2677 21.0339 14.9133L17.9581 13.6834C17.1623 13.3651 16.2563 13.5084 15.5979 14.057L14.8041 14.7191C13.877 15.4917 12.5129 15.4303 11.6596 14.5769L9.42426 12.3396C8.57092 11.4862 8.50786 10.1232 9.28044 9.19613L9.94238 8.40235C10.491 7.74395 10.6356 6.83769 10.3173 6.04194L9.0862 2.96676Z" stroke="#00A77F" stroke-width="1.5" stroke-linecap="round" stroke-linejoin="round"/>
</svg>
