<svg width="21" height="20" viewBox="0 0 21 20" fill="none" xmlns="http://www.w3.org/2000/svg">
<path fill-rule="evenodd" clip-rule="evenodd" d="M18.418 2.62209C18.0685 2.05234 17.4432 1.7539 16.8178 1.83003C16.6861 1.84606 16.4346 1.9373 15.9163 2.30578C15.412 2.66423 14.7733 3.19542 13.8678 3.94958L12.8445 4.80194V12.243L14.0577 13.098C14.9405 13.7202 15.5594 14.1556 16.0466 14.4453C16.5433 14.7406 16.7839 14.8088 16.9161 14.8167C17.5215 14.8527 18.1097 14.5419 18.4359 13.986C18.5119 13.8564 18.594 13.6012 18.638 13.0111C18.6812 12.4313 18.6818 11.6576 18.6818 10.5578V6.34422C18.6818 5.1467 18.6812 4.29964 18.6345 3.66867C18.5867 3.0215 18.4967 2.7504 18.418 2.62209ZM11.0263 11.8054V5.2851H5.27873C4.66493 5.2851 4.25141 5.28562 3.93085 5.30812C3.61897 5.33 3.46331 5.36945 3.35795 5.41434C2.95255 5.58706 2.62257 5.922 2.44875 6.35362C2.40162 6.47066 2.36232 6.63922 2.34074 6.96451C2.31866 7.29748 2.31819 7.72591 2.31819 8.35619V9.76164C2.31819 10.0586 2.31904 10.1493 2.32494 10.2176C2.3992 11.0774 3.0554 11.7267 3.84329 11.7987C3.90553 11.8044 3.98956 11.8054 4.27991 11.8054H11.0263ZM11.6064 3.46692L12.7351 2.52684C13.6027 1.80418 14.2949 1.22762 14.8628 0.823878C15.4234 0.425387 15.9891 0.0993254 16.5981 0.025184C17.9478 -0.139135 19.256 0.511045 19.9678 1.67139C20.2871 2.19187 20.3961 2.83661 20.4478 3.53454C20.5 4.24074 20.5 5.15542 20.5 6.30547V10.5961C20.5 11.6489 20.5 12.4907 20.4511 13.1463C20.4024 13.7996 20.2991 14.4031 20.0041 14.9059C19.3412 16.0361 18.1139 16.7094 16.8079 16.6316C16.2233 16.5968 15.6704 16.3369 15.1174 16.0081C14.5621 15.6779 13.8856 15.2011 13.0428 14.6071L11.6472 13.6235H11.4091V16.6873C11.4091 18.4926 9.97981 20 8.16316 20C7.54935 20 6.93482 19.8239 6.4087 19.4668C5.27204 18.6952 4.43073 17.9843 3.93938 16.8837C3.54611 16.0028 3.41315 14.9474 3.38001 13.5691C1.82513 13.2895 0.651665 11.9736 0.513503 10.3741C0.49993 10.2169 0.499962 10.0407 0.500005 9.8028C0.500007 9.78928 0.50001 9.77556 0.50001 9.76164L0.500009 8.32589C0.500002 7.73346 0.499995 7.24447 0.52655 6.84416C0.554065 6.42937 0.612953 6.04502 0.762193 5.67444C1.11203 4.80571 1.78648 4.10754 2.6453 3.74165C3.01402 3.58456 3.39592 3.52301 3.80356 3.4944C4.19535 3.46691 4.67299 3.46691 5.24709 3.46692L11.6064 3.46692ZM5.20078 13.6235C5.23676 14.8702 5.35782 15.6009 5.59962 16.1425C5.87456 16.7584 6.35294 17.2315 7.42983 17.9624C7.63979 18.105 7.89506 18.1818 8.16316 18.1818C8.92772 18.1818 9.59091 17.537 9.59091 16.6873V13.6235H5.20078Z" fill="white"/>
</svg>
