<svg width="24" height="24" viewBox="0 0 24 24" fill="none" xmlns="http://www.w3.org/2000/svg">
<path d="M1.5 12H7.33333M1.5 12C1.5 17.799 6.20101 22.5 12 22.5M1.5 12C1.5 6.20101 6.20101 1.5 12 1.5M7.33333 12H16.6667M7.33333 12C7.33333 17.799 9.42267 22.5 12 22.5M7.33333 12C7.33333 6.20101 9.42267 1.5 12 1.5M16.6667 12H22.5M16.6667 12C16.6667 6.20101 14.5773 1.5 12 1.5M16.6667 12C16.6667 17.799 14.5773 22.5 12 22.5M22.5 12C22.5 6.20101 17.799 1.5 12 1.5M22.5 12C22.5 17.799 17.799 22.5 12 22.5" stroke="#00A77F" stroke-width="1.5" stroke-linecap="round" stroke-linejoin="round"/>
</svg>
