<svg width="15" height="23" viewBox="0 0 15 23" fill="none" xmlns="http://www.w3.org/2000/svg">
<path d="M1.3125 4.75H10.3125C11.2076 4.75 12.0661 5.10558 12.699 5.73851C13.3319 6.37145 13.6875 7.22989 13.6875 8.125C13.6875 9.02011 13.3319 9.87855 12.699 10.5115C12.0661 11.1444 11.2076 11.5 10.3125 11.5M10.3125 11.5C11.2076 11.5 12.0661 11.8556 12.699 12.4885C13.3319 13.1215 13.6875 13.9799 13.6875 14.875C13.6875 15.7701 13.3319 16.6286 12.699 17.2615C12.0661 17.8944 11.2076 18.25 10.3125 18.25H1.3125M10.3125 11.5H3.5625M3.5625 4.75V18.25M4.6875 1.375V4.75M9.1875 1.375V4.75M4.6875 18.25V21.625M9.1875 18.25V21.625" stroke="white" stroke-width="2.25" stroke-linecap="round" stroke-linejoin="round"/>
</svg>
