<svg width="28" height="29" viewBox="0 0 28 29" fill="none" xmlns="http://www.w3.org/2000/svg">
<path d="M28 14.299C28 18.0082 27.3784 21.0169 26.6113 21.0169C25.8443 21.0169 25.2229 18.009 25.2229 14.299C25.2229 10.5889 25.8445 7.58099 26.6113 7.58099C27.3781 7.58099 28 10.5887 28 14.299Z" fill="black"/>
<path d="M24.4566 14.299C24.4566 18.4398 22.6888 21.798 20.5081 21.798C18.3274 21.798 16.5596 18.4398 16.5596 14.299C16.5596 10.1581 18.3271 6.79993 20.5078 6.79993C22.6885 6.79993 24.4563 10.157 24.4563 14.299" fill="black"/>
<path d="M15.7937 14.299C15.7937 18.6981 12.2581 22.2643 7.89698 22.2643C3.53585 22.2643 0 18.6973 0 14.299C0 9.9006 3.53558 6.33331 7.89698 6.33331C12.2584 6.33331 15.7937 9.89979 15.7937 14.299Z" fill="black"/>
</svg>
