<svg width="44" height="44" viewBox="0 0 44 44" fill="none" xmlns="http://www.w3.org/2000/svg">
<rect width="44" height="44" rx="11" fill="#00A77F"/>
<g filter="url(#filter0_i_169_858)">
<path d="M22.2732 35.9333C14.4222 35.9333 9.53345 30.9356 9.53345 22.3576C9.53345 13.7978 14.4585 8.79999 22.2732 8.79999C28.5645 8.79999 33.4171 12.6416 34.0716 18.3247C34.1307 18.8382 33.7126 19.268 33.1957 19.268H28.5485C28.0805 19.268 27.695 18.9124 27.5914 18.456C26.9943 15.8268 24.9344 14.1431 22.2732 14.1431C17.2193 14.1431 15.3283 17.2689 15.3283 22.3576C15.3283 27.5007 17.6463 30.5903 22.2914 30.5903C24.9595 30.5903 26.9627 28.9884 27.612 26.3772C27.7224 25.9331 28.1029 25.5925 28.5606 25.5925H33.2155C33.7387 25.5925 34.1589 26.0323 34.092 26.5511C33.358 32.2437 28.6809 35.9333 22.2732 35.9333Z" fill="white"/>
</g>
<defs>
<filter id="filter0_i_169_858" x="9.53345" y="8.79999" width="24.5656" height="27.4994" filterUnits="userSpaceOnUse" color-interpolation-filters="sRGB">
<feFlood flood-opacity="0" result="BackgroundImageFix"/>
<feBlend mode="normal" in="SourceGraphic" in2="BackgroundImageFix" result="shape"/>
<feColorMatrix in="SourceAlpha" type="matrix" values="0 0 0 0 0 0 0 0 0 0 0 0 0 0 0 0 0 0 127 0" result="hardAlpha"/>
<feOffset dy="0.365993"/>
<feGaussianBlur stdDeviation="0.182997"/>
<feComposite in2="hardAlpha" operator="arithmetic" k2="-1" k3="1"/>
<feColorMatrix type="matrix" values="0 0 0 0 0 0 0 0 0 0 0 0 0 0 0 0 0 0 0.2 0"/>
<feBlend mode="normal" in2="shape" result="effect1_innerShadow_169_858"/>
</filter>
</defs>
</svg>
