<svg width="27" height="30" viewBox="0 0 27 30" fill="none" xmlns="http://www.w3.org/2000/svg">
<path d="M10.125 7.3125L13.5 3.65625M13.5 3.65625L16.875 7.3125M13.5 3.65625V15.8438M7.87526 12.1875C6.82689 12.1875 6.30271 12.1875 5.88922 12.373C5.33791 12.6204 4.89963 13.0952 4.67127 13.6925C4.5 14.1404 4.5 14.708 4.5 15.8438V21.6938C4.5 23.0589 4.5 23.741 4.74524 24.2624C4.96095 24.721 5.30491 25.0946 5.72827 25.3283C6.2091 25.5938 6.83887 25.5938 8.09652 25.5938H18.904C20.1617 25.5938 20.7905 25.5938 21.2714 25.3283C21.6947 25.0946 22.0393 24.721 22.255 24.2624C22.5 23.7415 22.5 23.06 22.5 21.6975V15.8438C22.5 14.708 22.4999 14.1404 22.3286 13.6925C22.1003 13.0952 21.6624 12.6204 21.111 12.373C20.6976 12.1875 20.1734 12.1875 19.125 12.1875" stroke="#00A77F" stroke-width="2.25" stroke-linecap="round" stroke-linejoin="round"/>
</svg>
