<svg width="16" height="16" viewBox="0 0 16 16" fill="none" xmlns="http://www.w3.org/2000/svg">
<path d="M6.077 1.99979C5.64423 2.32927 5.19025 2.62992 4.718 2.89979L4.724 2.99179C4.77198 2.98288 4.8176 2.96416 4.858 2.93679C4.86961 2.93338 4.88189 2.93291 4.89373 2.93543C4.90556 2.93794 4.91659 2.94336 4.92581 2.9512C4.93503 2.95903 4.94217 2.96904 4.94656 2.98031C4.95096 2.99158 4.95248 3.00378 4.951 3.01579L5.044 2.96079L5.091 2.95479L5.1 2.99979C4.81419 3.29448 4.49504 3.5549 4.149 3.77579L4.2 3.85979L4.153 3.86579L4.053 3.82879C4.053 3.85979 4.012 3.87779 3.919 3.88379L3.925 3.93279L4.025 4.05479C3.97672 4.054 3.9291 4.04345 3.885 4.02379C3.7556 4.05328 3.63421 4.11072 3.52936 4.19208C3.4245 4.27345 3.33871 4.37676 3.278 4.49479L3.336 4.58079C3.42224 4.48193 3.52348 4.39723 3.636 4.32979L3.651 4.46479C3.60332 4.47468 3.55788 4.49333 3.517 4.51979L3.627 4.69079C3.82927 4.45945 4.06286 4.2575 4.321 4.09079C4.36126 4.0909 4.40067 4.10242 4.43465 4.12401C4.46863 4.1456 4.4958 4.17638 4.513 4.21279L4.607 4.19979C5.21771 3.71045 5.90312 3.3225 6.637 3.05079L6.643 3.14479C6.58791 3.26739 6.49869 3.37153 6.386 3.44479C6.3922 3.50821 6.4142 3.56907 6.45 3.62179C6.20875 4.44851 5.90453 5.25553 5.54 6.03579C4.51685 8.66359 3.33466 11.2267 2 13.7108C2.00846 13.7584 2.02612 13.8039 2.052 13.8448C2.21184 13.8169 2.36429 13.7567 2.5 13.6678L2.552 13.6618L2.56 13.7528L2.647 13.7468L2.74 13.6918C2.74 13.7218 2.775 13.7348 2.833 13.7288L2.84 13.8208C2.82823 13.9726 2.77571 14.1184 2.688 14.2428C2.5442 14.4613 2.43963 14.7033 2.379 14.9578L2.385 14.9998L2.472 14.9938C2.81921 14.5967 3.11149 14.1547 3.341 13.6798C4.22249 13.4306 5.07651 13.0929 5.89 12.6718C6.3786 12.6563 6.84991 12.4873 7.237 12.1888L7.232 12.1398L7.01 12.2068L6.958 12.2128L6.952 12.1638C7.27255 12.1371 7.58162 12.032 7.852 11.8578C8.7 11.1748 9.331 10.6918 9.763 10.3998C11.099 9.37279 11.729 8.38279 11.653 7.44179C11.4117 7.01953 11.1154 6.63114 10.772 6.28679C10.8284 6.15785 10.9108 6.04193 11.0141 5.94627C11.1173 5.85061 11.2391 5.77725 11.372 5.73079L12.533 4.66179C12.8383 4.15386 12.9998 3.57243 13 2.97979L12.983 2.79979C12.9333 2.49734 12.8016 2.21434 12.6021 1.98159C12.4027 1.74884 12.1432 1.57527 11.852 1.47979C11.1585 1.11328 10.3766 0.947076 9.594 0.999786C8.38126 1.1698 7.19777 1.50631 6.077 1.99979ZM12.329 2.07879L12.294 2.17079L11 1.59979C11.8633 1.63645 12.3067 1.79545 12.33 2.07679L12.329 2.07879ZM7.092 5.84579C7.1023 5.53652 7.20698 5.23781 7.392 4.98979L8.357 2.71079C8.346 2.56979 8.55 2.45979 8.976 2.38679L9.116 2.37479L9.127 2.49979C9.547 2.43579 9.8 2.39979 9.9 2.38679C10.67 2.31979 11.066 2.47879 11.1 2.87579L11.188 2.86979L11.17 2.63779L11.263 2.63179C11.3595 2.67305 11.4437 2.73873 11.5072 2.82236C11.5706 2.90599 11.6112 3.0047 11.625 3.10879C11.6186 3.28683 11.5475 3.45642 11.425 3.58579C11.367 3.59179 11.332 3.54879 11.325 3.45779L11.232 3.46379L11.209 3.73879C11.0334 4.13389 10.7373 4.46329 10.363 4.67979C10.2886 4.81561 10.1864 4.9342 10.063 5.02779C9.76176 5.32707 9.42608 5.58957 9.063 5.80979C8.37019 6.02487 7.69707 6.29887 7.051 6.62879C6.99479 6.60168 6.93187 6.59159 6.87 6.59979L6.864 6.51179C6.86935 6.27172 6.94962 6.03914 7.092 5.84579ZM12.452 3.03479L12.458 3.11979C12.3295 3.00547 12.2393 2.85425 12.2 2.68679L12.189 2.59979C12.2667 2.64311 12.3318 2.7059 12.3779 2.78199C12.424 2.85808 12.4496 2.94485 12.452 3.03379V3.03479ZM3.936 4.12279L3.942 4.16479C3.89436 4.17481 3.84895 4.19345 3.808 4.21979L3.761 4.22579L3.756 4.14079L3.936 4.12279ZM6.753 4.04979L6.765 4.18379C6.68543 4.22672 6.62506 4.29817 6.596 4.38379L6.59 4.28779C6.65324 4.22222 6.69569 4.13941 6.712 4.04979H6.753ZM6.322 4.99979L6.339 5.18579L6.292 5.19179L6.275 5.00879L6.322 4.99979ZM6.211 5.32979C6.2 5.48479 6.164 5.56479 6.089 5.57079L6.042 5.57679C6.08678 5.50724 6.11295 5.42735 6.118 5.34479L6.211 5.32979ZM6.019 5.80679L6.024 5.85179L5.943 5.99979H5.855L5.849 5.96179C5.86748 5.96257 5.88589 5.95908 5.90279 5.95157C5.91969 5.94407 5.93463 5.93276 5.94644 5.91853C5.95825 5.9043 5.96662 5.88753 5.97088 5.86953C5.97514 5.85154 5.97518 5.8328 5.971 5.81479L6.019 5.80679ZM5.819 6.23479L5.8 6.46279L5.75 6.46879L5.733 6.24279L5.819 6.23479ZM10.55 6.39979L10.743 6.52179C10.7452 6.53389 10.7447 6.54631 10.7416 6.55821C10.7385 6.57011 10.7329 6.58119 10.7251 6.5907C10.7173 6.6002 10.7075 6.60791 10.6964 6.61327C10.6854 6.61864 10.6733 6.62155 10.661 6.62179C10.6056 6.57809 10.5391 6.55073 10.469 6.54279L10.457 6.40879L10.55 6.39979ZM6.85 6.91879L6.853 7.00679L6.672 7.02479L6.666 6.93979L6.85 6.91879ZM9.833 7.23879C9.87678 7.251 9.91736 7.27263 9.95191 7.30217C9.98646 7.33171 10.0141 7.36843 10.033 7.40979L10.039 7.45279C9.96974 7.45361 9.90159 7.4354 9.84199 7.40013C9.78238 7.36486 9.73361 7.31389 9.701 7.25279L9.833 7.23879ZM5.984 8.22879C6.84055 8.08204 7.67404 7.82314 8.463 7.45879L8.737 7.43479C8.96189 7.39312 9.19325 7.4022 9.41418 7.46137C9.63511 7.52054 9.84004 7.6283 10.014 7.77679L10.031 7.95979C9.94638 8.40565 9.69902 8.80412 9.337 9.07779L8.171 10.0498C7.72516 10.384 7.25522 10.6849 6.765 10.9498C5.96876 11.4857 5.10086 11.9065 4.187 12.1998H4.135C4.182 12.0288 4.794 10.7088 5.984 8.22779V8.22879ZM7.244 7.70979L7.249 7.75279L7.062 7.77079L7.057 7.72779L7.244 7.70979ZM11.432 7.50979L11.46 7.87479C11.4544 7.90873 11.4394 7.94044 11.4168 7.96639C11.3942 7.99235 11.3648 8.01152 11.332 8.02179L11.28 7.38579C11.3138 7.39332 11.3452 7.40889 11.3717 7.43117C11.3981 7.45345 11.4188 7.48179 11.432 7.51379V7.50979ZM4.332 10.6628C4.33477 10.7508 4.31963 10.8385 4.28748 10.9205C4.25533 11.0025 4.20686 11.0771 4.145 11.1398L4.141 11.0998C4.13723 11.0175 4.15261 10.9355 4.18593 10.8602C4.21924 10.7849 4.26959 10.7183 4.333 10.6658L4.332 10.6628ZM5.5 12.3908C6.48184 11.9837 7.41664 11.4714 8.288 10.8628L8.294 10.9488C8.18804 11.0915 8.05395 11.2109 7.9 11.2998C7.41568 11.5182 6.95775 11.791 6.535 12.1128C6.08592 12.2189 5.66194 12.4118 5.287 12.6808C4.78408 12.8776 4.29322 13.104 3.817 13.3588C3.73477 13.3581 3.65387 13.3379 3.581 13.2998C3.57407 13.2224 3.58917 13.1446 3.62456 13.0754C3.65995 13.0062 3.71418 12.9485 3.781 12.9088C3.90856 12.8951 4.03745 12.9162 4.154 12.9698C4.3853 12.8619 4.62776 12.7797 4.877 12.7248L4.871 12.6328L4.6 12.6528C4.85066 12.492 5.11912 12.3608 5.4 12.2618L5.54 12.2498L5.546 12.2928C5.46378 12.2815 5.38011 12.2974 5.30785 12.3383C5.23559 12.3791 5.17873 12.4425 5.146 12.5188C5.14543 12.5306 5.14758 12.5423 5.15227 12.5531C5.15696 12.5639 5.16407 12.5735 5.17306 12.5812C5.18205 12.5888 5.19266 12.5943 5.2041 12.5972C5.21553 12.6 5.22747 12.6002 5.239 12.5978C5.33567 12.5419 5.4236 12.4722 5.5 12.3908ZM4.065 11.2848L4.071 11.3278C4.07317 11.3399 4.07269 11.3523 4.0696 11.3642C4.0665 11.3761 4.06086 11.3872 4.05306 11.3967C4.04527 11.4062 4.0355 11.4139 4.02444 11.4193C4.01338 11.4246 4.00129 11.4275 3.989 11.4278L3.983 11.3848C3.98162 11.3728 3.98266 11.3607 3.98606 11.3491C3.98947 11.3375 3.99516 11.3267 4.00281 11.3174C4.01046 11.3081 4.01991 11.3004 4.03059 11.2948C4.04128 11.2892 4.05298 11.2858 4.065 11.2848ZM6.246 11.9078C6.02315 11.9671 5.8121 12.0642 5.622 12.1948L5.575 12.1998L5.569 12.1098C5.78752 12.0935 5.99182 11.9953 6.141 11.8348C6.15248 11.8314 6.16459 11.8307 6.17639 11.8328C6.18818 11.8348 6.19934 11.8396 6.20901 11.8466C6.21868 11.8537 6.22659 11.8629 6.23214 11.8735C6.23769 11.8841 6.24072 11.8958 6.241 11.9078H6.246ZM3.983 12.5678L4.123 12.5558L4.129 12.5998C4.08103 12.6087 4.03541 12.6274 3.995 12.6548L3.908 12.6608C3.90487 12.6375 3.91111 12.6138 3.92535 12.5951C3.93959 12.5764 3.96068 12.564 3.984 12.5608L3.983 12.5678ZM3.056 13.1118L3.156 13.1548C3.121 13.4298 3.045 13.5708 2.911 13.5828C2.82253 13.5381 2.724 13.5171 2.625 13.5218L2.613 13.3868C2.61135 13.362 2.61957 13.3376 2.63587 13.3188C2.65218 13.3001 2.67523 13.2886 2.7 13.2868C2.758 13.2808 2.793 13.3238 2.8 13.4148C2.87541 13.3064 2.96151 13.2059 3.057 13.1148L3.056 13.1118Z" fill="#F59F29"/>
</svg>
