<svg width="22" height="22" viewBox="0 0 22 22" fill="none" xmlns="http://www.w3.org/2000/svg">
<path d="M1.60855 9.37574L1.92073 8.97739L5.88695 8.97551L5.63159 9.37386L1.60855 9.37574ZM5.20577 10.3557L5.33734 9.95734L0.312183 9.96081L0 10.3592L5.20577 10.3557ZM5.06137 11.3391L5.09935 10.9407L2.81355 10.9426L2.59169 11.341L5.06137 11.3391ZM19.6407 14.4586C17.4416 15.67 14.437 15.157 13.6338 12.5304C13.159 13.4646 12.3839 14.2302 11.4603 14.6668C9.27171 15.7013 6.30035 14.7992 5.91817 11.9642C5.63831 9.24701 7.83753 7.56793 9.1376 7.14402C11.2037 6.5004 13.2415 7.25668 13.9461 9.13893L11.7267 9.72063C11.491 9.06445 10.2094 8.59192 9.22432 9.30416C7.67497 10.2601 7.70361 12.6657 9.5755 13.0229C10.5474 13.1475 11.2002 12.6673 11.6895 11.9286L9.27956 11.9338L10.0539 10.264H13.6657C15.2301 5.85084 21.331 6.04408 21.951 10.0097C22.1714 11.4191 21.6903 13.3296 19.6407 14.4586ZM17.6364 8.99852C15.9666 9.35782 15.5504 10.8328 15.8081 11.7779C16.0824 12.7836 17.1449 13.4431 18.4929 12.8124C20.6534 11.8017 20.0871 8.47119 17.6364 8.99852Z" fill="#82AAFF"/>
</svg>
