<svg width="20" height="20" viewBox="0 0 20 20" fill="none" xmlns="http://www.w3.org/2000/svg">
<path d="M9.93625 1.25C5.49375 1.25 5.77125 3.18625 5.77125 3.18625V5.1925H10.0162V5.795H4.0925C4.0925 5.795 1.25 5.47125 1.25 9.9775C1.25 14.4837 3.73125 14.3237 3.73125 14.3237H5.21125V12.2325C5.1919 11.9041 5.24134 11.5754 5.35639 11.2672C5.47144 10.9591 5.64957 10.6783 5.87938 10.443C6.10918 10.2076 6.3856 10.0229 6.69093 9.90055C6.99626 9.7782 7.32377 9.72097 7.6525 9.7325H11.8588C12.1669 9.74617 12.4746 9.69668 12.763 9.58706C13.0513 9.47744 13.3142 9.31001 13.5355 9.09507C13.7568 8.88012 13.9317 8.6222 14.0497 8.33715C14.1676 8.0521 14.226 7.74594 14.2212 7.4375V3.585C14.2212 3.585 14.58 1.25 9.93625 1.25ZM7.59875 2.59875C7.75046 2.59801 7.89897 2.64232 8.02547 2.72606C8.15197 2.8098 8.25077 2.92921 8.30934 3.06916C8.36791 3.20911 8.38362 3.36329 8.35448 3.51218C8.32534 3.66106 8.25266 3.79794 8.14565 3.90548C8.03864 4.01302 7.90211 4.08637 7.75337 4.11624C7.60463 4.14611 7.45037 4.13116 7.31014 4.07327C7.16991 4.01539 7.05001 3.91718 6.96565 3.79109C6.88129 3.665 6.83625 3.51671 6.83625 3.365C6.83592 3.2646 6.85539 3.16512 6.89355 3.07225C6.93171 2.97938 6.9878 2.89494 7.05862 2.82377C7.12944 2.7526 7.2136 2.6961 7.30628 2.65748C7.39896 2.61887 7.49835 2.59891 7.59875 2.59875ZM10.065 18.75C14.5075 18.75 14.23 16.8138 14.23 16.8138V14.8075H9.985V14.205H15.9088C15.9088 14.205 18.75 14.5287 18.75 10.0225C18.75 5.51625 16.2688 5.67625 16.2688 5.67625H14.79V7.7675C14.8093 8.09586 14.7599 8.42464 14.6449 8.73279C14.5298 9.04095 14.3517 9.32168 14.1219 9.55701C13.8921 9.79235 13.6156 9.97711 13.3103 10.0995C13.005 10.2218 12.6775 10.279 12.3487 10.2675H8.1425C7.83432 10.2538 7.5266 10.3033 7.23826 10.4129C6.94991 10.5226 6.68702 10.69 6.46576 10.9049C6.24449 11.1199 6.06951 11.3778 5.95159 11.6629C5.83366 11.9479 5.77527 12.2541 5.78 12.5625V16.4213C5.78 16.4213 5.42125 18.75 10.065 18.75ZM12.4025 17.4012C12.2508 17.402 12.1023 17.3577 11.9758 17.2739C11.8493 17.1902 11.7505 17.0708 11.6919 16.9308C11.6333 16.7909 11.6176 16.6367 11.6468 16.4878C11.6759 16.3389 11.7486 16.2021 11.8556 16.0945C11.9626 15.987 12.0991 15.9136 12.2479 15.8838C12.3966 15.8539 12.5509 15.8688 12.6911 15.9267C12.8313 15.9846 12.9512 16.0828 13.0356 16.2089C13.12 16.335 13.165 16.4833 13.165 16.635C13.1653 16.7354 13.1459 16.8349 13.1077 16.9278C13.0695 17.0206 13.0135 17.1051 12.9426 17.1762C12.8718 17.2474 12.7877 17.3039 12.695 17.3425C12.6023 17.3811 12.5029 17.4011 12.4025 17.4012Z" fill="#FFCB6B"/>
</svg>
