<svg width="16" height="16" viewBox="0 0 16 16" fill="none" xmlns="http://www.w3.org/2000/svg">
<path fill-rule="evenodd" clip-rule="evenodd" d="M10.5849 10.5242C11.0796 10.4731 11.4548 10.0466 11.4378 9.53488C11.4207 9.02314 10.9943 8.61375 10.4825 8.61375H10.4484C9.91963 8.63081 9.51024 9.07431 9.5273 9.60311C9.54435 9.85898 9.6467 10.0807 9.80022 10.2343C9.22025 11.3771 8.33324 12.213 7.00271 12.9124C6.09864 13.39 5.16045 13.5606 4.22226 13.4412C3.45465 13.3388 2.85762 12.9977 2.48234 12.4347C1.93649 11.5989 1.88531 10.6948 2.34588 9.79075C2.66998 9.14255 3.18172 8.66492 3.50582 8.42611C3.43759 8.20436 3.33524 7.82908 3.28407 7.55615C0.810658 9.34724 1.06653 11.7695 1.81708 12.9124C2.37999 13.7653 3.52288 14.2941 4.78517 14.2941C5.12633 14.2941 5.46749 14.2599 5.80865 14.1747C7.99208 13.7482 9.6467 12.4518 10.5849 10.5242Z" fill="#26C6DA"/>
<path fill-rule="evenodd" clip-rule="evenodd" d="M13.5867 8.4092C12.2903 6.89104 10.3798 6.0552 8.19637 6.0552H7.92344C7.76992 5.74815 7.44582 5.54346 7.0876 5.54346H7.05348C6.52468 5.56052 6.11529 6.00402 6.13235 6.53282C6.14941 7.04456 6.57586 7.45395 7.0876 7.45395H7.12171C7.49699 7.4369 7.82109 7.19808 7.95756 6.87398H8.2646C9.56101 6.87398 10.7892 7.24926 11.898 7.98275C12.7509 8.54567 13.3649 9.27916 13.7061 10.1662C13.9961 10.8826 13.979 11.582 13.672 12.179C13.1944 13.0831 12.3926 13.5778 11.335 13.5778C10.6527 13.5778 10.0045 13.3731 9.66336 13.2196C9.47572 13.3901 9.13456 13.6631 8.89575 13.8336C9.62924 14.1748 10.3798 14.3624 11.0962 14.3624C12.7338 14.3624 13.9449 13.4584 14.4055 12.5543C14.9002 11.5649 14.866 9.85913 13.5867 8.4092Z" fill="#26C6DA"/>
<path fill-rule="evenodd" clip-rule="evenodd" d="M4.92182 10.8144C4.93887 11.3262 5.36532 11.7355 5.87706 11.7355H5.91118C6.43998 11.7185 6.84937 11.275 6.83231 10.7462C6.81525 10.2344 6.3888 9.82505 5.87706 9.82505H5.84295C5.80883 9.82505 5.75766 9.82505 5.72354 9.84211C5.02416 8.68216 4.73418 7.41987 4.83652 6.05523C4.90476 5.03175 5.24592 4.14473 5.84295 3.41124C6.33763 2.78009 7.29288 2.47305 7.94108 2.45599C9.74923 2.42188 10.5168 4.67353 10.568 5.57761C10.7898 5.62878 11.165 5.74819 11.4209 5.83348C11.2162 3.07008 9.51042 1.63721 7.87285 1.63721C6.33763 1.63721 4.92182 2.74598 4.3589 4.38354C3.57423 6.56697 4.08597 8.6651 5.04122 10.3197C4.95593 10.4391 4.90476 10.6268 4.92182 10.8144Z" fill="#26C6DA"/>
</svg>
