<svg width="18" height="22" viewBox="0 0 18 22" fill="none" xmlns="http://www.w3.org/2000/svg">
<path d="M1.5 4.93557V16.6003C1.5 18.2741 1.5 19.1109 1.75102 19.623C2.21629 20.5723 3.23594 21.1178 4.28384 20.9784C4.84921 20.9032 5.54556 20.439 6.93825 19.5105L6.94159 19.5083C7.49361 19.1403 7.76965 18.9562 8.05841 18.8542C8.58876 18.6667 9.16744 18.6667 9.6978 18.8542C9.98714 18.9564 10.2643 19.1412 10.8185 19.5107C12.2112 20.4391 12.9083 20.903 13.4737 20.9782C14.5216 21.1176 15.5412 20.5723 16.0065 19.623C16.2575 19.1109 16.2575 18.2739 16.2575 16.6003V4.93153C16.2575 3.55673 16.2575 2.8683 15.9897 2.34268C15.7539 1.87988 15.3766 1.50389 14.9138 1.26808C14.3877 1 13.6999 1 12.3224 1H5.43557C4.05807 1 3.36881 1 2.84268 1.26808C2.37988 1.50389 2.00389 1.87988 1.76808 2.34268C1.5 2.86881 1.5 3.55807 1.5 4.93557Z" stroke="#959595" stroke-width="2" stroke-linecap="round" stroke-linejoin="round"/>
</svg>
