<svg width="23" height="23" viewBox="0 0 23 23" fill="none" xmlns="http://www.w3.org/2000/svg">
<path d="M3.80308 15.6639C3.80308 14.8871 4.58766 14.188 5.26349 13.4966C5.77618 12.9606 5.91601 11.8575 5.97815 10.9642C6.03253 7.90357 6.82488 5.93047 8.8912 5.18473C9.14754 4.16711 9.9865 3.367 11.1284 3.367C12.2781 3.367 13.1093 4.16711 13.3734 5.18473C15.4397 5.93047 16.2321 7.90357 16.2864 10.9642C16.3486 11.8575 16.4884 12.9606 17.0011 13.4966C17.6692 14.188 18.4615 14.8871 18.4615 15.6639C18.4615 16.231 18.0187 16.6039 17.2885 16.6039H14.0104C13.9482 18.1109 12.7753 19.4159 11.1284 19.4159C9.48934 19.4159 8.31636 18.1031 8.25421 16.6039H4.97607C4.2381 16.6039 3.80308 16.231 3.80308 15.6639ZM5.3101 15.4309H16.9467V15.3377C16.8069 15.1124 16.3486 14.6541 15.9369 14.2035C15.3853 13.5821 15.1212 12.58 15.0513 11.0652C14.9892 7.67053 13.9793 6.59076 12.6432 6.22566C12.449 6.17905 12.348 6.08583 12.3402 5.88386C12.3092 5.07598 11.8508 4.50891 11.1284 4.50891C10.4137 4.50891 9.94766 5.07598 9.92436 5.88386C9.91659 6.08583 9.80783 6.17905 9.61363 6.22566C8.28528 6.59076 7.27543 7.67053 7.21328 11.0652C7.14337 12.58 6.87926 13.5821 6.31995 14.2035C5.91601 14.6541 5.44992 15.1124 5.3101 15.3377V15.4309ZM9.46604 16.6039C9.52041 17.6603 10.1962 18.3206 11.1284 18.3206C12.0684 18.3206 12.7364 17.6603 12.7986 16.6039H9.46604Z" fill="#00A77F"/>
</svg>
