<?xml version="1.0" encoding="UTF-8"?>
<svg id="_Слой_1" data-name="Слой 1" xmlns="http://www.w3.org/2000/svg" viewBox="0 0 149 44">
  <defs>
    <style>
      .cls-1 {
        fill: #00a77f;
        stroke-width: 0px;
      }
    </style>
  </defs>
  <path class="cls-1" d="M22.5736999512,42.6358942648c-5.9724998474,0-10.8141002655-4.8415985107-10.8141002655-10.8140983582V8.7162756582h-3.0433197021C3.9024100304,8.7162756582,0,4.8138656279,0-.0000043253h25.6170005798C30.4309005737-.0000043253,34.3333015442,3.9024057051,34.3333015442,8.7162756582h-11.759601593v33.9196186066h0Z"/>
  <path class="cls-1" d="M47.2452011108,43.3154940268c-10.1935997009,0-16.4575004578-6.1456985474-16.4575004578-16.7529983521v-.0590991974c0-10.4300003052,6.4706993103-16.723441124,16.4575004578-16.723441124,10.0163002014,0,16.4575004578,6.2343397141,16.4575004578,16.723441124v.0590991974c0,10.6367988586-6.3230018616,16.7529983521-16.4575004578,16.7529983521ZM47.2747001648,35.3673967978c3.5751991272,0,5.8207015991-3.1615028381,5.8207015991-8.804901123v-.0590991974c0-5.5548000336-2.3046035767-8.7754001617-5.8502006531-8.7754001617-3.5456008911,0-5.8207015991,3.2206001282-5.8207015991,8.7754001617v.0590991974c0,5.6730003357,2.2159996033,8.804901123,5.8502006531,8.804901123Z"/>
  <path class="cls-1" d="M83.2331008911,43.3154940268c-10.1937026978,0-16.4576034546-6.1456985474-16.4576034546-16.7529983521v-.0590991974c0-10.4300003052,6.4708023071-16.723441124,16.4576034546-16.723441124,10.0162963867,0,16.4574966431,6.2343397141,16.4574966431,16.723441124v.0590991974c0,10.6367988586-6.3229980469,16.7529983521-16.4574966431,16.7529983521ZM83.2626037598,35.3673967978c3.5751953125,0,5.8206939697-3.1615028381,5.8206939697-8.804901123v-.0590991974c0-5.5548000336-2.3045959473-8.7754001617-5.8501968384-8.7754001617s-5.8207015991,3.2206001282-5.8207015991,8.7754001617v.0590991974c0,5.6730003357,2.216003418,8.804901123,5.8502044678,8.804901123Z"/>
  <path class="cls-1" d="M103.9160003662,42.6358942648V10.4890961309C103.9160003662,4.6961254736,108.6119995117-.0000043253,114.4049987793-.0000043253h0v32.1468009949c0,5.7929992676-4.6959991455,10.4890975952-10.4889984131,10.4890975952h0Z"/>
  <path class="cls-1" d="M133.7870025635,43.3154940268c-9.5730056763,0-14.7140045166-4.2251968384-15.4230041504-10.4890975952l-.0289993286-.2658996582h8.1539993286l.1699981689,1.0046005249c.5020065308,2.1863975525,4.0559997559,2.6886978149,7.1280059814,2.6886978149,2.7779998779,0,4.4619903564-1.0046005249,4.4619903564-2.659198761v-.029499054c0-1.4478034973-1.033996582-2.2456016541-3.8999938965-2.8365020752l-5.6730041504-1.1227989197c-6.2939910889-1.2114009857-9.5729980469-4.4911003113-9.5729980469-9.3959007263v-.029499054c0-6.4116010666,5.4950027466-10.4004411697,14.3000030518-10.4004411697,9.3079986572,0,14.2420043945,4.7570400238,14.3309936523,10.5186395645l.029006958.2364006042-9.8760070801-1.2446994781c-.2359924316-1.8910007477-1.5879974365-2.4486999512-4.4839935303-2.4486999512-2.5700073242,0-4.2250061035,1.0636997223-4.2250061035,2.7479000092v.029499054c0,1.3887004852.9750061035,2.2159996033,4.0190124512,2.8365001678l5.6729888916,1.122800827c6.825012207,1.3591003418,9.779006958,4.0182991028,9.779006958,8.834400177v.0295982361c0,6.6480026245-6.0270080566,10.8731994629-14.8619995117,10.8731994629Z"/>
</svg>