<svg width="12" height="17" viewBox="0 0 12 17" fill="none" xmlns="http://www.w3.org/2000/svg">
<path d="M0 3.2002V12.6854C0 14.0464 0 14.7268 0.204119 15.1433C0.582446 15.9151 1.41157 16.3588 2.26367 16.2454C2.7234 16.1842 3.28964 15.8067 4.4221 15.0518L4.42481 15.0499C4.87368 14.7507 5.09815 14.6011 5.33295 14.5181C5.76421 14.3656 6.23476 14.3656 6.66602 14.5181C6.90129 14.6012 7.12664 14.7515 7.57732 15.0519C8.70978 15.8069 9.27665 16.1841 9.73638 16.2452C10.5885 16.3586 11.4176 15.9151 11.7959 15.1433C12 14.7269 12 14.0462 12 12.6854V3.19691C12 2.07899 12 1.5192 11.7822 1.0918C11.5905 0.715473 11.2837 0.409734 10.9074 0.217987C10.4796 0 9.9203 0 8.8002 0H3.2002C2.08009 0 1.51962 0 1.0918 0.217987C0.715473 0.409734 0.409734 0.715473 0.217987 1.0918C0 1.51962 0 2.08009 0 3.2002Z" fill="#FF0000"/>
</svg>
